<svg xmlns="http://www.w3.org/2000/svg" id="Layer_1" data-name="Layer 1" viewBox="0 0 56 56"><defs><style>.cls-1,.cls-3,.cls-4{fill:#39383d}.cls-2,.cls-5{fill:#ededed}.cls-3,.cls-4,.cls-5{stroke:#ededed;stroke-width:2px}.cls-3{stroke-miterlimit:10}.cls-4,.cls-5{stroke-linejoin:round}</style></defs><circle cx="28" cy="28" r="27.5" class="cls-1"/><path d="M32,5A27,27,0,1,1,5,32,27,27,0,0,1,32,5m0-1A28,28,0,1,0,60,32,28,28,0,0,0,32,4Z" class="cls-1" transform="translate(-4 -4)"/><circle cx="19.5" cy="36.5" r="4.5" class="cls-1"/><path d="M23.5,37A3.5,3.5,0,1,1,20,40.5,3.5,3.5,0,0,1,23.5,37m0-2A5.5,5.5,0,1,0,29,40.5,5.5,5.5,0,0,0,23.5,35Z" class="cls-2" transform="translate(-4 -4)"/><path d="M28,41a4,4,0,0,1,8,0" class="cls-3" transform="translate(-4 -4)"/><circle cx="36.5" cy="36.5" r="4.5" class="cls-1"/><path d="M40.5,37A3.5,3.5,0,1,1,37,40.5,3.5,3.5,0,0,1,40.5,37m0-2A5.5,5.5,0,1,0,46,40.5,5.5,5.5,0,0,0,40.5,35Z" class="cls-2" transform="translate(-4 -4)"/><path d="M17,32c0-1.13,6.72-2,15-2s15,.91,15,2Z" class="cls-4" transform="translate(-4 -4)"/><polygon points="35 26 21 26 21 15.5 28 18.42 35 15.5 35 26" class="cls-5"/></svg>